<svg xmlns="http://www.w3.org/2000/svg" viewBox="0 0 64 64" fill="none">
<defs>
  <linearGradient id="grad" x1="6" y1="6" x2="58" y2="58" gradientUnits="userSpaceOnUse">
    <stop offset="0%" stop-color="#8B5CFF"/>
    <stop offset="55%" stop-color="#26D9FF"/>
    <stop offset="100%" stop-color="#67FFB8"/>
  </linearGradient>
  <filter id="glow" x="-50%" y="-50%" width="200%" height="200%">
    <feGaussianBlur stdDeviation="1.3" result="blur"/>
    <feMerge>
      <feMergeNode in="blur"/>
      <feMergeNode in="SourceGraphic"/>
    </feMerge>
  </filter>
</defs>
<g stroke="url(#grad)" stroke-width="2.8" stroke-linecap="round" stroke-linejoin="round" filter="url(#glow)">

  <path d="M13 21c0-5 4-9 9-9h13c5 0 9 4 9 9v8c0 5-4 9-9 9H27l-9 8v-8h-2c-1.7 0-3-1.3-3-3V21z"/>
  <circle cx="24" cy="25" r="2"/>
  <circle cx="32" cy="25" r="2"/>
  <circle cx="40" cy="25" r="2"/>
  <path d="M47 20h4a4 4 0 0 1 4 4v8a4 4 0 0 1-4 4h-1v6l-6-6" opacity=".85"/>

</g>
</svg>