<svg xmlns="http://www.w3.org/2000/svg" viewBox="0 0 512 512">
  <defs>
    <linearGradient id="g" x1="0" y1="0" x2="1" y2="1">
      <stop offset="0%" stop-color="#6EE7F9"/>
      <stop offset="100%" stop-color="#7C3AED"/>
    </linearGradient>
  </defs>
  <rect width="512" height="512" rx="112" fill="#0B1020"/>
  <path d="M342 136c-28-22-63-34-102-34-74 0-129 39-129 95 0 46 32 74 94 86l63 13c34 7 49 18 49 34 0 23-26 38-67 38-40 0-76-13-109-39l-29 37c39 31 87 47 137 47 79 0 134-38 134-98 0-45-30-72-92-84l-63-13c-35-7-51-17-51-35 0-22 24-37 62-37 31 0 60 9 86 29z" fill="url(#g)"/>
</svg>