<svg xmlns="http://www.w3.org/2000/svg" viewBox="0 0 64 64" fill="none">
<defs>
  <linearGradient id="grad" x1="6" y1="6" x2="58" y2="58" gradientUnits="userSpaceOnUse">
    <stop offset="0%" stop-color="#8B5CFF"/>
    <stop offset="55%" stop-color="#26D9FF"/>
    <stop offset="100%" stop-color="#67FFB8"/>
  </linearGradient>
  <filter id="glow" x="-50%" y="-50%" width="200%" height="200%">
    <feGaussianBlur stdDeviation="1.3" result="blur"/>
    <feMerge>
      <feMergeNode in="blur"/>
      <feMergeNode in="SourceGraphic"/>
    </feMerge>
  </filter>
</defs>
<g stroke="url(#grad)" stroke-width="2.8" stroke-linecap="round" stroke-linejoin="round" filter="url(#glow)">

  <path d="M44 14c-3.2-2.8-7.4-4.4-12-4.4-9.9 0-18 6.5-18 14.4 0 5.4 3.8 9.9 9.4 12.4L18 50.2c-.5 1 .4 2.1 1.5 1.8l14.6-4.7c10.1-.9 17.9-7.1 17.9-14.9 0-3.5-1.6-6.8-4.4-9.5"/>
  <path d="M22 24c2.6-4.2 8.8-6.2 14.2-4.8 3 .8 5.8 2.7 7.1 5.2-2.3-1.3-5.3-1.8-8.1-1.2-3.4.7-5.6 2.4-7.5 4.3-2.1 2-4.6 3.8-8.7 4.2 0 0 2 2.9 6.9 3.7 5.1.8 10.1-1.2 12.6-4.5"/>

</g>
</svg>