<svg xmlns="http://www.w3.org/2000/svg" viewBox="0 0 64 64" fill="none">
<defs>
  <linearGradient id="grad" x1="6" y1="6" x2="58" y2="58" gradientUnits="userSpaceOnUse">
    <stop offset="0%" stop-color="#8B5CFF"/>
    <stop offset="55%" stop-color="#26D9FF"/>
    <stop offset="100%" stop-color="#67FFB8"/>
  </linearGradient>
  <filter id="glow" x="-50%" y="-50%" width="200%" height="200%">
    <feGaussianBlur stdDeviation="1.3" result="blur"/>
    <feMerge>
      <feMergeNode in="blur"/>
      <feMergeNode in="SourceGraphic"/>
    </feMerge>
  </filter>
</defs>
<g stroke="url(#grad)" stroke-width="2.8" stroke-linecap="round" stroke-linejoin="round" filter="url(#glow)">

  <path d="M24 20c0-5.5 4.5-10 10-10s10 4.5 10 10c0 2.5-.9 4.8-2.4 6.5 4.5 1.4 7.9 5.6 7.9 10.5V42H14v-5c0-4.9 3.4-9.1 7.9-10.5A9.9 9.9 0 0 1 24 20z"/>
  <path d="M32 20v8M28 24h8"/>
  <path d="M24 47v7M32 45v9M40 47v7" opacity=".8"/>

</g>
</svg>