<svg xmlns="http://www.w3.org/2000/svg" viewBox="0 0 64 64" fill="none">
<defs>
  <linearGradient id="grad" x1="6" y1="6" x2="58" y2="58" gradientUnits="userSpaceOnUse">
    <stop offset="0%" stop-color="#8B5CFF"/>
    <stop offset="55%" stop-color="#26D9FF"/>
    <stop offset="100%" stop-color="#67FFB8"/>
  </linearGradient>
  <filter id="glow" x="-50%" y="-50%" width="200%" height="200%">
    <feGaussianBlur stdDeviation="1.3" result="blur"/>
    <feMerge>
      <feMergeNode in="blur"/>
      <feMergeNode in="SourceGraphic"/>
    </feMerge>
  </filter>
</defs>
<g stroke="url(#grad)" stroke-width="2.8" stroke-linecap="round" stroke-linejoin="round" filter="url(#glow)">

  <path d="M32 13c4.4 0 8 3.6 8 8v11c0 4.4-3.6 8-8 8s-8-3.6-8-8V21c0-4.4 3.6-8 8-8z"/>
  <path d="M18 29c0 7.7 6.3 14 14 14s14-6.3 14-14"/>
  <path d="M32 43v8M25 51h14"/>
  <path d="M14 27v6M10 25v10M50 27v6M54 25v10" opacity=".75"/>

</g>
</svg>